#define 7859bc5c230f45d1d8e685bc5508a6edsRu4RUDC1gABUi65_width 120
#define 7859bc5c230f45d1d8e685bc5508a6edsRu4RUDC1gABUi65_height 120
static char 7859bc5c230f45d1d8e685bc5508a6edsRu4RUDC1gABUi65_bits[] = {
  0x00, 0x00, 0x00, 0x00, 0x00, 0x00, 0x00, 0x00, 0x00, 0x00, 0x00, 0x00, 
  0x00, 0x00, 0x00, 0x00, 0x00, 0x00, 0x00, 0x00, 0x00, 0x00, 0x00, 0x00, 
  0x00, 0x00, 0x00, 0x00, 0x00, 0x00, 0x00, 0x00, 0x00, 0x00, 0x00, 0x00, 
  0x00, 0x00, 0x00, 0x00, 0x00, 0x00, 0x00, 0x00, 0x00, 0x00, 0x00, 0x00, 
  0x00, 0x00, 0x00, 0x00, 0x00, 0x00, 0x00, 0x00, 0x00, 0x00, 0x00, 0x00, 
  0x00, 0x00, 0x00, 0x00, 0x00, 0x00, 0x00, 0x00, 0x00, 0x00, 0x00, 0x00, 
  0x00, 0x00, 0x00, 0x00, 0x00, 0x00, 0x00, 0x00, 0x00, 0x00, 0x00, 0x00, 
  0x81, 0x00, 0x00, 0x00, 0x00, 0x00, 0x00, 0x00, 0x00, 0x00, 0x00, 0x00, 
  0x00, 0x00, 0x80, 0xEF, 0x05, 0x04, 0x00, 0x10, 0x00, 0x00, 0x00, 0x00, 
  0x00, 0x00, 0x00, 0x00, 0x00, 0x80, 0x7E, 0x0F, 0x00, 0x00, 0x00, 0x00, 
  0x00, 0x00, 0x00, 0x00, 0x00, 0x00, 0x00, 0x00, 0x00, 0xBA, 0x06, 0x00, 
  0x00, 0x00, 0x00, 0x00, 0x00, 0x00, 0x00, 0x00, 0x00, 0x00, 0x00, 0x00, 
  0x00, 0x00, 0x00, 0x00, 0x00, 0x00, 0x00, 0x00, 0x00, 0x00, 0x00, 0x00, 
  0x00, 0x00, 0x00, 0x00, 0x00, 0x00, 0x00, 0x00, 0x00, 0x00, 0x00, 0x00, 
  0x00, 0x00, 0x00, 0x00, 0x00, 0x00, 0x00, 0x00, 0x00, 0x00, 0x00, 0x00, 
  0x00, 0x00, 0x80, 0x22, 0x04, 0x00, 0x00, 0x00, 0x00, 0x00, 0x00, 0x00, 
  0x00, 0x00, 0x00, 0x00, 0x00, 0x10, 0x00, 0x00, 0x00, 0x00, 0x00, 0x00, 
  0x00, 0x00, 0x00, 0x00, 0x00, 0x00, 0x00, 0x00, 0x08, 0x00, 0x22, 0x00, 
  0x00, 0x00, 0x00, 0x00, 0x00, 0x00, 0x00, 0x00, 0x00, 0x00, 0x00, 0x00, 
  0x41, 0x80, 0x00, 0x00, 0x00, 0x20, 0x11, 0x02, 0x20, 0x02, 0x00, 0x00, 
  0x00, 0x00, 0x01, 0x00, 0x00, 0x01, 0x00, 0x00, 0x40, 0x7C, 0x9B, 0xEB, 
  0x71, 0x00, 0x00, 0x00, 0x00, 0x20, 0x20, 0x08, 0x00, 0x00, 0x00, 0xF0, 
  0x35, 0xAE, 0x9A, 0xE6, 0x00, 0x00, 0x00, 0x40, 0x00, 0x08, 0x80, 0x08, 
  0x00, 0x00, 0x60, 0x5E, 0xE5, 0x5F, 0xBD, 0x00, 0x00, 0x00, 0x00, 0x00, 
  0x00, 0x00, 0x00, 0x00, 0x00, 0x80, 0x91, 0x10, 0x61, 0x02, 0x00, 0x00, 
  0x00, 0x10, 0x20, 0x00, 0x00, 0x10, 0x00, 0x00, 0x00, 0x00, 0x00, 0x00, 
  0x00, 0x00, 0x00, 0x00, 0x00, 0x08, 0x00, 0x08, 0x00, 0x00, 0x00, 0x00, 
  0x00, 0x01, 0x00, 0x00, 0x0A, 0x00, 0x00, 0x08, 0x00, 0x00, 0x20, 0x40, 
  0x00, 0x00, 0x40, 0x0A, 0x32, 0x91, 0x8A, 0x02, 0x00, 0x00, 0x00, 0x00, 
  0x10, 0x30, 0x02, 0x00, 0x00, 0x70, 0x71, 0xC0, 0x10, 0xB8, 0x04, 0x00, 
  0x00, 0x10, 0x00, 0x00, 0x70, 0x02, 0x00, 0x00, 0x00, 0x11, 0x91, 0x00, 
  0x82, 0x00, 0x00, 0x00, 0x00, 0x18, 0x80, 0x38, 0x80, 0x00, 0x00, 0x00, 
  0x00, 0x00, 0x00, 0x00, 0x00, 0x00, 0x00, 0x00, 0x00, 0x00, 0x32, 0x00, 
  0x00, 0x00, 0x00, 0x00, 0x00, 0x40, 0x00, 0x02, 0x00, 0x00, 0x04, 0x00, 
  0x04, 0x30, 0x00, 0x02, 0x00, 0xB0, 0xA9, 0xB7, 0x3A, 0x55, 0x0D, 0x00, 
  0x00, 0x00, 0x00, 0x00, 0x80, 0x00, 0x00, 0x00, 0xE0, 0x63, 0xE1, 0x34, 
  0xC6, 0x0F, 0x00, 0x40, 0x00, 0x00, 0x48, 0x08, 0x21, 0x00, 0x00, 0x40, 
  0x86, 0x97, 0x6C, 0x93, 0x01, 0x00, 0x00, 0x04, 0x42, 0x00, 0x08, 0x00, 
  0x04, 0x00, 0x00, 0x00, 0x00, 0x00, 0x00, 0x00, 0x00, 0x00, 0x40, 0x00, 
  0x00, 0x0C, 0x00, 0x00, 0x00, 0x00, 0x00, 0x00, 0x00, 0x00, 0x00, 0x00, 
  0x00, 0x00, 0x00, 0x00, 0x06, 0x08, 0x01, 0x00, 0xA0, 0x08, 0x00, 0x00, 
  0x00, 0x00, 0x00, 0x20, 0x00, 0x00, 0x00, 0x04, 0x00, 0x00, 0x00, 0xA0, 
  0xFD, 0xEC, 0xDD, 0xF7, 0x01, 0x00, 0x00, 0x10, 0x48, 0x00, 0x82, 0x00, 
  0x00, 0x00, 0xE0, 0x7F, 0xFC, 0xDE, 0xE6, 0x01, 0x00, 0x10, 0x02, 0x00, 
  0x21, 0x02, 0x00, 0x08, 0x00, 0x00, 0x00, 0x00, 0x01, 0x00, 0x00, 0x00, 
  0x10, 0x20, 0x04, 0x00, 0x02, 0x00, 0x00, 0x00, 0x00, 0x00, 0x00, 0x00, 
  0x00, 0x00, 0x00, 0x00, 0x00, 0x00, 0x40, 0x03, 0x08, 0x08, 0x00, 0x00, 
  0x00, 0x00, 0x00, 0x00, 0x00, 0x00, 0x00, 0x00, 0x80, 0x00, 0x01, 0x20, 
  0x00, 0x00, 0x50, 0x44, 0x85, 0x14, 0xD2, 0x00, 0x00, 0x00, 0x01, 0x0E, 
  0x00, 0x41, 0x00, 0x20, 0x00, 0xB0, 0xBB, 0x5B, 0x67, 0x11, 0x1F, 0x00, 
  0x08, 0x00, 0x1C, 0x80, 0x00, 0x20, 0x20, 0x00, 0x80, 0xEE, 0xCE, 0xE3, 
  0xD1, 0x1B, 0x00, 0x00, 0x01, 0x1C, 0x80, 0x00, 0x00, 0x01, 0x00, 0x00, 
  0x00, 0x00, 0x00, 0x00, 0x00, 0x00, 0x00, 0x00, 0x1C, 0xC1, 0x10, 0x04, 
  0x00, 0x00, 0x00, 0x00, 0x00, 0x00, 0x00, 0x00, 0x00, 0x00, 0x80, 0x32, 
  0x40, 0x00, 0x00, 0x00, 0x00, 0x20, 0x00, 0x00, 0x20, 0x00, 0x00, 0x00, 
  0x40, 0x40, 0x28, 0x40, 0x00, 0x00, 0x40, 0x00, 0x60, 0xCB, 0x89, 0x15, 
  0x00, 0x00, 0x00, 0x04, 0x00, 0x60, 0x40, 0x00, 0x00, 0x00, 0x00, 0xC0, 
  0xB6, 0xBE, 0x20, 0x00, 0x00, 0x00, 0x00, 0x02, 0x40, 0x20, 0x01, 0x00, 
  0x00, 0x00, 0x40, 0xB5, 0x13, 0x01, 0x00, 0x00, 0x00, 0x04, 0x00, 0x80, 
  0x21, 0x10, 0x84, 0x02, 0x00, 0x00, 0x04, 0x00, 0x00, 0x00, 0x00, 0x00, 
  0x00, 0x01, 0x00, 0x21, 0x84, 0x00, 0x40, 0x00, 0x00, 0x00, 0x00, 0x00, 
  0x00, 0x00, 0x00, 0x00, 0x10, 0x01, 0x33, 0x00, 0x00, 0x00, 0x00, 0x20, 
  0x00, 0x90, 0x82, 0x00, 0x00, 0x00, 0x00, 0x00, 0x00, 0x12, 0x00, 0x00, 
  0x42, 0x00, 0xF0, 0xEF, 0x29, 0x9B, 0x07, 0x00, 0x00, 0x04, 0x00, 0x80, 
  0x1C, 0x00, 0x84, 0x00, 0x00, 0x80, 0xB9, 0x98, 0x19, 0x04, 0x00, 0x00, 
  0x84, 0x20, 0x00, 0x1C, 0x00, 0x02, 0x08, 0x00, 0x00, 0x00, 0x80, 0x00, 
  0x06, 0x00, 0x00, 0x00, 0x08, 0x42, 0x1C, 0x00, 0x00, 0x00, 0x00, 0x00, 
  0x00, 0x00, 0x00, 0x00, 0x00, 0x00, 0x00, 0x00, 0x00, 0x04, 0x04, 0x00, 
  0x00, 0x00, 0x00, 0x00, 0x00, 0x00, 0x00, 0x00, 0x00, 0x00, 0x00, 0x00, 
  0x00, 0x20, 0x00, 0x40, 0x00, 0x00, 0x00, 0x00, 0x00, 0x00, 0x00, 0x00, 
  0x04, 0x00, 0x00, 0x00, 0x00, 0x80, 0x02, 0x00, 0x01, 0x00, 0x00, 0x00, 
  0x00, 0x00, 0x00, 0x10, 0x80, 0x00, 0x00, 0x00, 0x08, 0x40, 0x00, 0x00, 
  0x00, 0x00, 0x00, 0x00, 0x00, 0x00, 0x00, 0x00, 0x00, 0x00, 0x00, 0x00, 
  0x00, 0x00, 0x00, 0x00, 0x00, 0x00, 0x00, 0x00, 0x00, 0x00, 0x01, 0x12, 
  0x10, 0x84, 0x00, 0x00, 0x00, 0x00, 0x00, 0x00, 0x00, 0x00, 0x00, 0x00, 
  0x10, 0x02, 0x00, 0x01, 0x00, 0x00, 0x40, 0x00, 0x40, 0x24, 0x45, 0x52, 
  0x24, 0x45, 0x00, 0x00, 0x00, 0x00, 0x80, 0x00, 0x14, 0x00, 0x00, 0x00, 
  0x00, 0x00, 0x00, 0x00, 0x00, 0x00, 0x00, 0x40, 0x40, 0x00, 0x02, 0x00, 
  0x00, 0x00, 0x00, 0x00, 0x00, 0x00, 0x00, 0x00, 0x00, 0x08, 0x00, 0x04, 
  0x00, 0x40, 0x00, 0x08, 0x00, 0x00, 0x00, 0x00, 0x00, 0x00, 0x00, 0x00, 
  0x00, 0x00, 0x00, 0x00, 0x40, 0x00, 0x00, 0x00, 0x00, 0x00, 0x00, 0x00, 
  0x00, 0x00, 0x00, 0x00, 0x00, 0x18, 0x00, 0x04, 0x00, 0x21, 0x00, 0x00, 
  0x00, 0x00, 0x00, 0x00, 0x00, 0x00, 0x80, 0x10, 0x00, 0x08, 0x00, 0x40, 
  0x00, 0x00, 0x80, 0x09, 0x00, 0x00, 0x00, 0x00, 0x00, 0x00, 0x04, 0x00, 
  0x20, 0x00, 0x01, 0x00, 0x00, 0x00, 0x54, 0x17, 0x28, 0x42, 0x12, 0x00, 
  0x10, 0x00, 0x00, 0x00, 0x14, 0x20, 0x01, 0x00, 0x00, 0x7E, 0x0D, 0x00, 
  0x00, 0x00, 0x00, 0x00, 0x00, 0x00, 0x00, 0x00, 0x00, 0x10, 0x00, 0x80, 
  0xB7, 0x0F, 0x00, 0x00, 0x00, 0x00, 0x00, 0x04, 0x42, 0x20, 0x00, 0x00, 
  0x00, 0x00, 0x00, 0x00, 0x00, 0x00, 0x00, 0x00, 0x00, 0x20, 0x40, 0x00, 
  0x02, 0x00, 0x00, 0x00, 0x00, 0x00, 0x00, 0x00, 0x00, 0x00, 0x00, 0x00, 
  0x00, 0x00, 0x84, 0x10, 0x00, 0x00, 0x08, 0x00, 0x00, 0x00, 0x00, 0x00, 
  0x00, 0x00, 0x00, 0x00, 0x08, 0x00, 0x00, 0x02, 0x00, 0x00, 0x00, 0x00, 
  0x00, 0x00, 0x00, 0x00, 0x00, 0x00, 0x40, 0x00, 0x00, 0x00, 0x00, 0x48, 
  0x00, 0x00, 0x00, 0x00, 0x00, 0x00, 0x00, 0x00, 0x00, 0x00, 0x00, 0x00, 
  0x00, 0x40, 0x00, 0x00, 0x00, 0x00, 0x00, 0x00, 0x00, 0x00, 0x00, 0x00, 
  0x00, 0x84, 0x00, 0x00, 0x40, 0x04, 0x02, 0x00, 0x00, 0x00, 0x00, 0x00, 
  0x00, 0x00, 0x00, 0x00, 0x01, 0x04, 0x10, 0x00, 0x00, 0x00, 0x00, 0x80, 
  0x04, 0x00, 0x00, 0x00, 0x00, 0x00, 0x00, 0x00, 0x00, 0x04, 0x02, 0x00, 
  0x01, 0x00, 0x20, 0x5A, 0x21, 0x00, 0x00, 0x00, 0x00, 0x00, 0x00, 0x40, 
  0x00, 0x00, 0x00, 0x00, 0x00, 0x60, 0xCA, 0xFF, 0x07, 0x00, 0x00, 0x00, 
  0x00, 0x02, 0x10, 0x00, 0x00, 0xA0, 0x00, 0x00, 0xA0, 0x98, 0xEF, 0x06, 
  0x00, 0x00, 0x00, 0x00, 0x00, 0x00, 0x00, 0x00, 0x00, 0x00, 0x00, 0x00, 
  0x14, 0x10, 0x06, 0x00, 0x00, 0x00, 0x00, 0x08, 0x04, 0x28, 0x20, 0x04, 
  0x00, 0x00, 0x00, 0x00, 0x00, 0x04, 0x00, 0x00, 0x00, 0x00, 0x10, 0x00, 
  0x00, 0x01, 0x00, 0x00, 0x00, 0x00, 0x00, 0x00, 0x00, 0x00, 0x00, 0x00, 
  0x00, 0x10, 0x00, 0x00, 0x00, 0x00, 0x00, 0x00, 0x00, 0x00, 0x00, 0x00, 
  0x00, 0x00, 0x00, 0x00, 0x00, 0x00, 0x00, 0x00, 0x08, 0x00, 0x00, 0x00, 
  0x00, 0x00, 0x00, 0x00, 0x00, 0x00, 0x00, 0x40, 0x04, 0x10, 0x80, 0x00, 
  0x00, 0x00, 0x00, 0x00, 0x00, 0x00, 0x00, 0x00, 0x00, 0x00, 0x00, 0x40, 
  0x01, 0x02, 0x02, 0x00, 0x00, 0xA0, 0x14, 0x00, 0x00, 0x00, 0x00, 0x00, 
  0x00, 0x00, 0x00, 0x10, 0x00, 0x00, 0x00, 0x00, 0xA0, 0x4A, 0x6E, 0x00, 
  0x00, 0x00, 0x00, 0x00, 0x00, 0x04, 0x00, 0x20, 0x00, 0x00, 0x00, 0x00, 
  0x2A, 0xD9, 0x00, 0x00, 0x00, 0x00, 0x00, 0x00, 0x10, 0x00, 0x20, 0x00, 
  0x00, 0x00, 0xE0, 0xD6, 0x56, 0x00, 0x00, 0x00, 0x00, 0x00, 0x00, 0x40, 
  0x00, 0x04, 0x00, 0x00, 0x00, 0x00, 0x00, 0x00, 0x00, 0x00, 0x00, 0x00, 
  0x00, 0x00, 0x00, 0x52, 0x00, 0x00, 0x00, 0x00, 0x00, 0x00, 0x00, 0x00, 
  0x00, 0x00, 0x00, 0x00, 0x00, 0x00, 0x00, 0x00, 0x00, 0x00, 0x00, 0x00, 
  0x00, 0x00, 0x00, 0x00, 0x00, 0x00, 0x00, 0x00, 0x00, 0x00, 0x00, 0x00, 
  0x00, 0x00, 0x00, 0x00, 0x00, 0x00, 0x00, 0x00, 0x00, 0x00, 0x00, 0x00, 
  0x00, 0x00, 0x00, 0x00, 0x00, 0x00, 0x00, 0x00, 0x00, 0x00, 0x00, 0x00, 
  0x00, 0x00, 0x00, 0x00, 0x00, 0x00, 0x00, 0x00, 0x00, 0x00, 0x00, 0x00, 
  0x00, 0x00, 0x00, 0x00, 0x00, 0x00, 0x00, 0x00, 0x00, 0x00, 0x00, 0xE0, 
  0xDC, 0x96, 0x00, 0x00, 0x00, 0x00, 0x00, 0x00, 0x00, 0x00, 0x00, 0x00, 
  0x00, 0x00, 0x40, 0x8B, 0x8E, 0x0D, 0x00, 0x00, 0x00, 0x00, 0x00, 0x94, 
  0x22, 0x68, 0x12, 0x4E, 0x03, 0x20, 0x58, 0x86, 0x0F, 0x00, 0x00, 0x00, 
  0x04, 0x00, 0xFE, 0xF7, 0x79, 0xBF, 0x6D, 0x01, 0xE0, 0x95, 0x3A, 0x15, 
  0x00, 0x00, 0x00, 0xE4, 0x0F, 0xBC, 0xD6, 0x71, 0xD4, 0xE7, 0x03, 0x00, 
  0x00, 0x00, 0x00, 0x00, 0x00, 0x00, 0xD4, 0x06, 0xFE, 0x7C, 0xEF, 0x9E, 
  0x45, 0x03, 0x00, 0x00, 0x00, 0x00, 0x00, 0x00, 0x00, 0xBC, 0x1F, 0xFE, 
  0x77, 0x79, 0xDF, 0x55, 0x03, 0x00, 0x00, 0x00, 0x00, 0x00, 0x00, 0x00, 
  0x00, 0x00, 0x00, 0x00, 0x00, 0x00, 0x00, 0x00, 0x00, 0x00, 0x00, 0x00, 
  0x00, 0x00, 0x00, 0x00, 0x00, 0x00, 0x00, 0x00, 0x00, 0x00, 0x00, 0x00, 
  0x00, 0x00, 0x00, 0x00, 0x00, 0x00, 0x00, 0x00, 0x00, 0x00, 0x00, 0x00, 
  0x00, 0x00, 0x00, 0x00, 0x00, 0x00, 0x00, 0x00, 0x00, 0x80, 0x09, 0x94, 
  0x22, 0x48, 0x12, 0x0D, 0x03, 0x00, 0x00, 0x00, 0x00, 0x00, 0x00, 0x00, 
  0xA0, 0x0A, 0xFE, 0xE7, 0x59, 0x9E, 0xEF, 0x03, 0x00, 0x00, 0x00, 0x00, 
  0x00, 0x00, 0x00, 0xA0, 0x02, 0xBC, 0xF6, 0xF1, 0xFF, 0x65, 0x03, 0x00, 
  0x00, 0x00, 0x00, 0x00, 0x00, 0x00, 0x40, 0x02, 0xFC, 0x7E, 0xFF, 0xBE, 
  0x45, 0x02, 0x00, 0x00, 0x00, 0x00, 0x00, 0x00, 0x00, 0xB0, 0x0C, 0xFE, 
  0x77, 0x7D, 0xDE, 0xD5, 0x03, 0x00, 0x00, 0x00, 0x00, 0x00, 0x00, 0x00, 
  0x00, 0x00, 0x80, 0x00, 0x00, 0x00, 0x00, 0x00, 0x00, 0x00, 0x00, 0x00, 
  0x00, 0x00, 0x00, 0x00, 0x00, 0x00, 0x00, 0x00, 0x00, 0x00, 0x00, 0x00, 
  0x00, 0x00, 0x00, 0x00, 0x00, 0x00, 0x00, 0x00, 0x00, 0x00, 0x00, 0x00, 
  0x00, 0x00, 0x00, 0x00, 0x00, 0x00, 0x00, 0x00, 0x00, 0x00, 0x00, 0x00, 
  0x00, 0x00, 0x00, 0x00, 0x00, 0x00, 0x00, 0x00, 0x00, 0x00, 0x00, 0x00, 
  0x00, 0x00, 0x00, 0x00, 0x00, 0x00, 0x00, 0x00, 0x80, 0x18, 0x81, 0x18, 
  0x81, 0x18, 0x00, 0x00, 0x00, 0x00, 0x00, 0x00, 0x00, 0x00, 0x00, 0x00, 
  0x00, 0x00, 0x00, 0x00, 0x00, 0x00, 0x00, 0x00, 0x00, 0x00, 0x00, 0x00, 
  0x00, 0x00, 0x00, 0x00, 0x00, 0x00, 0x00, 0x00, 0x00, 0x00, 0x00, 0x00, 
  0x00, 0x00, 0x00, 0x00, 0x00, 0x00, 0x00, 0x00, 0x00, 0x00, 0x00, 0x00, 
  };
